<?xml version="1.0" encoding="UTF-8" standalone="no"?>
<svg width="188px" height="182px" viewBox="0 0 188 182" version="1.1" xmlns="http://www.w3.org/2000/svg" xmlns:xlink="http://www.w3.org/1999/xlink" xmlns:sketch="http://www.bohemiancoding.com/sketch/ns">
    <!-- Generator: Sketch 3.3.3 (12081) - http://www.bohemiancoding.com/sketch -->
    <title>詠春拳 copy + 通背拳 copy + 太極拳 copy copy</title>
    <desc>Created with Sketch.</desc>
    <defs></defs>
    <g id="Home-v3" stroke="none" stroke-width="1" fill="none" fill-rule="evenodd" sketch:type="MSPage">
        <g id="chinese-characters" sketch:type="MSLayerGroup" transform="translate(-1.000000, -1.000000)">
            <path d="M8.652,59.504 L4.62,59.504 C4.70533376,58.1386598 4.77999968,56.7626736 4.844,55.376 C4.90800032,53.9893264 4.94,52.7840051 4.94,51.76 L4.94,44.144 C4.94,42.5226586 4.92933344,41.2106717 4.908,40.208 C4.88666656,39.2053283 4.83333376,38.4053363 4.748,37.808 C6.0280064,37.9360006 7.37199296,38.0319997 8.78,38.096 C10.188007,38.1600003 11.8733235,38.192 13.836,38.192 C14.8600051,38.192 15.7666627,38.1813334 16.556,38.16 C17.3453373,38.1386666 18.0599968,38.1173334 18.7,38.096 C19.3400032,38.0746666 19.9373306,38.0320003 20.492,37.968 C21.0466694,37.9039997 21.6013306,37.8293338 22.156,37.744 C22.1133331,38.085335 22.0706669,38.4373315 22.028,38.8 C21.9853331,39.1626685 21.9533334,39.5786643 21.932,40.048 C21.9106666,40.5173357 21.9,41.0826634 21.9,41.744 L21.9,44.144 L21.9,51.76 C21.9,52.7413382 21.9319997,53.8293274 21.996,55.024 C22.0600003,56.2186726 22.1346662,57.2213293 22.22,58.032 L18.316,58.032 L18.316,53.872 L8.652,53.872 L8.652,59.504 Z M18.316,41.2 L8.652,41.2 L8.652,50.928 L18.316,50.928 L18.316,41.2 Z M22.156,33.328 C21.1746618,33.2426662 19.9693405,33.1680003 18.54,33.104 C17.1106595,33.0399997 15.5426752,33.008 13.836,33.008 C12.043991,33.008 10.3266749,33.0293331 8.684,33.072 C7.04132512,33.1146669 5.70800512,33.1999994 4.684,33.328 L4.684,29.744 C5.750672,29.8293338 7.083992,29.9039997 8.684,29.968 C10.284008,30.0320003 12.0013242,30.064 13.836,30.064 C15.5000083,30.064 17.035993,30.0320003 18.444,29.968 C19.852007,29.9039997 21.089328,29.8293338 22.156,29.744 L22.156,33.328 Z M22.668,24.176 C21.6866618,24.0906662 20.4813405,24.0160003 19.052,23.952 C17.6226595,23.8879997 16.0546752,23.856 14.348,23.856 C13.4519955,23.856 12.5453379,23.8666666 11.628,23.888 C10.7106621,23.9093334 9.81467104,23.9306666 8.94,23.952 C8.06532896,23.9733334 7.26533696,24.0053331 6.54,24.048 C5.81466304,24.0906669 5.19600256,24.1333331 4.684,24.176 L4.684,20.656 C5.750672,20.7413338 7.16932448,20.8159997 8.94,20.88 C10.7106755,20.9440003 12.5133242,20.976 14.348,20.976 C16.0120083,20.976 17.547993,20.9546669 18.956,20.912 C20.364007,20.8693331 21.601328,20.7840006 22.668,20.656 L22.668,24.176 Z M24.012,15.856 C22.8599942,15.6853325 21.3666758,15.5573338 19.532,15.472 C17.6973242,15.3866662 15.6920109,15.344 13.516,15.344 C11.3399891,15.344 9.32400928,15.3866662 7.468,15.472 C5.61199072,15.5573338 4.06533952,15.6853325 2.828,15.856 L2.828,11.952 C4.06533952,12.0800006 5.61199072,12.1866662 7.468,12.272 C9.32400928,12.3573338 11.3399891,12.4 13.516,12.4 C15.6920109,12.4 17.6973242,12.3573338 19.532,12.272 C21.3666758,12.1866662 22.8599942,12.0800006 24.012,11.952 L24.012,15.856 Z M12.748,11.312 C12.4493318,10.2879949 12.1826678,9.42400352 11.948,8.72 C11.7133322,8.01599648 11.4680013,7.37600288 11.212,6.8 C10.9559987,6.22399712 10.657335,5.65866944 10.316,5.104 C9.97466496,4.54933056 9.54800256,3.90933696 9.036,3.184 L12.428,1.456 C12.8973357,2.22400384 13.3133315,2.9279968 13.676,3.568 C14.0386685,4.2080032 14.3586653,4.8479968 14.636,5.488 C14.9133347,6.1280032 15.1906653,6.79999648 15.468,7.504 C15.7453347,8.20800352 16.054665,9.02932864 16.396,9.968 L12.748,11.312 Z M38.348,25.008 C37.9639981,28.6773517 37.4733363,31.941319 36.876,34.8 C36.2786637,37.658681 35.5106714,40.2613216 34.572,42.608 C33.6333286,44.9546784 32.5240064,47.1199901 31.244,49.104 C29.9639936,51.0880099 28.4706752,53.0399904 26.764,54.96 C26.2519974,54.234663 25.7080029,53.6373357 25.132,53.168 C24.5559971,52.6986643 23.8413376,52.293335 22.988,51.952 C24.780009,50.3733254 26.3159936,48.8266742 27.596,47.312 C28.8760064,45.7973258 29.9746621,44.1546755 30.892,42.384 C31.8093379,40.6133245 32.5666637,38.6186778 33.164,36.4 C33.7613363,34.1813222 34.2946643,31.6000147 34.764,28.656 C32.2039872,28.656 30.1453411,28.7199994 28.588,28.848 C27.0306589,28.9760006 25.718672,29.1893318 24.652,29.488 L24.652,25.008 C25.4626707,25.2213344 26.3266621,25.3386666 27.244,25.36 C28.1613379,25.3813334 29.4519917,25.392 31.116,25.392 C34.1880154,25.392 36.5986579,25.2640013 38.348,25.008 L38.348,25.008 Z M46.604,30.384 C47.5000045,29.3599949 48.2999965,28.4000045 49.004,27.504 C49.7080035,26.6079955 50.3799968,25.6906714 51.02,24.752 C51.6600032,23.8133286 52.2679971,22.8320051 52.844,21.808 C53.4200029,20.7839949 54.0066637,19.6533395 54.604,18.416 C55.2013363,19.0133363 55.8093302,19.5679974 56.428,20.08 C57.0466698,20.5920026 57.6333306,21.0399981 58.188,21.424 C58.6573357,21.7226682 58.8813334,22.0319984 58.86,22.352 C58.8386666,22.6720016 58.5293363,22.8746662 57.932,22.96 C57.6759987,23.0026669 57.2386698,23.2266646 56.62,23.632 C56.0013302,24.0373354 55.5640013,24.410665 55.308,24.752 C54.3693286,25.9040058 53.270673,27.2159926 52.012,28.688 C50.753327,30.1600074 49.3773408,31.7066586 47.884,33.328 C48.8653382,35.461344 49.8146621,37.3599917 50.732,39.024 C51.6493379,40.6880083 52.5879952,42.1919933 53.548,43.536 C54.5080048,44.8800067 55.521328,46.0959946 56.588,47.184 C57.654672,48.2720054 58.8493267,49.3279949 60.172,50.352 C59.2759955,50.7786688 58.5400029,51.2906637 57.964,51.888 C57.3879971,52.4853363 56.8866688,53.2746618 56.46,54.256 C53.6866528,51.1839846 51.2866768,47.7066861 49.26,43.824 C47.2333232,39.9413139 45.5586733,35.8026886 44.236,31.408 L44.236,53.296 C44.236,54.5760064 44.140001,55.6106627 43.948,56.4 C43.755999,57.1893373 43.3400032,57.8079978 42.7,58.256 C42.0599968,58.7040022 41.1426726,59.0133325 39.948,59.184 C38.7533274,59.3546675 37.1320102,59.4613331 35.084,59.504 C35.1693338,58.6079955 35.0733347,57.7120045 34.796,56.816 C34.5186653,55.9199955 34.017337,55.0880038 33.292,54.32 C34.7853408,54.7040019 36.0013286,54.9599994 36.94,55.088 C37.8786714,55.2160006 38.614664,55.2053341 39.148,55.056 C39.681336,54.9066659 40.043999,54.6293354 40.236,54.224 C40.428001,53.8186646 40.524,53.253337 40.524,52.528 L40.524,16.816 C38.4333229,16.816 36.6946736,16.8266666 35.308,16.848 C33.9213264,16.8693334 32.7480048,16.9013331 31.788,16.944 C30.8279952,16.9866669 30.0173366,17.0399997 29.356,17.104 C28.6946634,17.1680003 28.0653363,17.2426662 27.468,17.328 L27.468,13.104 C28.7480064,13.3173344 30.1239926,13.4559997 31.596,13.52 C33.0680074,13.5840003 34.5506592,13.616 36.044,13.616 C37.6653414,13.616 39.2226592,13.5840003 40.716,13.52 C42.2093408,13.4559997 43.489328,13.3173344 44.556,13.104 C44.4706662,13.8720038 44.3960003,14.6506627 44.332,15.44 C44.2679997,16.2293373 44.236,17.2426605 44.236,18.48 L44.236,23.408 C44.577335,24.6880064 44.9399981,25.8719946 45.324,26.96 C45.7080019,28.0480054 46.1346643,29.1893274 46.604,30.384 L46.604,30.384 Z M45.324,12.336 C43.531991,10.6293248 41.7293424,9.1360064 39.916,7.856 C38.1026576,6.5759936 36.0013453,5.31733952 33.612,4.08 L35.66,1.008 C37.7080102,2.16000576 39.7666563,3.39732672 41.836,4.72 C43.9053437,6.04267328 45.9639898,7.49332544 48.012,9.072 L45.324,12.336 Z M107.66,43.952 L107.66,37.808 L83.276,37.808 L83.276,43.952 L107.66,43.952 Z M107.66,53.168 L107.66,46.96 L83.276,46.96 L83.276,53.168 L107.66,53.168 Z M88.972,28.592 C87.3506586,30.8960115 85.5373434,32.943991 83.532,34.736 L106.764,34.736 C105.910662,33.7973286 105.078671,32.8266717 104.268,31.824 C103.457329,30.8213283 102.668004,29.7440058 101.9,28.592 L88.972,28.592 Z M92.044,11.632 C89.7826554,11.632 87.5960106,11.6426666 85.484,11.664 C83.3719894,11.6853334 81.3986758,11.7173331 79.564,11.76 C77.7293242,11.8026669 76.0973405,11.8559997 74.668,11.92 C73.2386595,11.9840003 72.0546714,12.0373331 71.116,12.08 L71.116,7.92 C73.3773446,8.1333344 76.374648,8.2933328 80.108,8.4 C83.841352,8.5066672 88.0333101,8.56 92.684,8.56 C92.8973344,7.45066112 93.0466662,6.40533824 93.132,5.424 C93.2173338,4.44266176 93.2813331,3.35467264 93.324,2.16 C94.3053382,2.45866816 95.1906627,2.68266592 95.98,2.832 C96.7693373,2.98133408 97.526663,3.056 98.252,3.056 C98.9346701,3.056 99.3186662,3.18399872 99.404,3.44 C99.4893338,3.69600128 99.2760026,4.01599808 98.764,4.4 C98.422665,4.65600128 98.0706685,5.16799616 97.708,5.936 C97.3453315,6.70400384 97.0146682,7.57866176 96.716,8.56 C99.2760128,8.56 101.622656,8.54933344 103.756,8.528 C105.889344,8.50666656 107.873324,8.46400032 109.708,8.4 C111.542676,8.33599968 113.249325,8.27200032 114.828,8.208 C116.406675,8.14399968 117.921326,8.04800064 119.372,7.92 L119.372,12.08 C117.878659,11.9946662 116.332008,11.9200003 114.732,11.856 C113.131992,11.7919997 111.393343,11.7493334 109.516,11.728 C107.638657,11.7066666 105.590678,11.6853334 103.372,11.664 C101.153322,11.6426666 98.6786803,11.632 95.948,11.632 C95.7346656,12.6133382 95.5106678,13.5519955 95.276,14.448 C95.0413322,15.3440045 94.7746682,16.2186624 94.476,17.072 L99.02,17.072 C100.982676,17.072 102.731992,17.0613334 104.268,17.04 C105.804008,17.0186666 107.233327,16.9866669 108.556,16.944 C109.878673,16.9013331 111.115994,16.8480003 112.268,16.784 C113.420006,16.7199997 114.571994,16.6453338 115.724,16.56 L115.724,20.72 C114.571994,20.6346662 113.420006,20.5493338 112.268,20.464 C111.115994,20.3786662 109.878673,20.3146669 108.556,20.272 C107.233327,20.2293331 105.804008,20.1973334 104.268,20.176 C102.731992,20.1546666 100.982676,20.144 99.02,20.144 L93.388,20.144 C92.6199962,22.0640096 91.7880045,23.8559917 90.892,25.52 L103.692,25.52 C107.617353,25.52 111.233317,25.4880003 114.54,25.424 C117.846683,25.3599997 120.673322,25.2213344 123.02,25.008 L123.02,29.168 C120.843989,28.9973325 118.294681,28.8693338 115.372,28.784 C112.449319,28.6986662 109.238684,28.6346669 105.74,28.592 C108.385347,31.792016 111.275984,34.2239917 114.412,35.888 C117.548016,37.5520083 121.121313,38.6613306 125.132,39.216 C124.491997,39.8133363 123.937336,40.5386624 123.468,41.392 C122.998664,42.2453376 122.614668,43.1413286 122.316,44.08 C118.305313,42.8853274 114.700016,41.1360115 111.5,38.832 L111.5,50.864 C111.5,52.3573408 111.521333,53.7759933 111.564,55.12 C111.606667,56.4640067 111.691999,57.8186598 111.82,59.184 L107.66,59.184 L107.66,56.176 L83.276,56.176 L83.276,60.144 L79.052,60.144 C79.1800006,58.8213267 79.2759997,57.6053389 79.34,56.496 C79.4040003,55.3866611 79.436,54.0853408 79.436,52.592 L79.436,38.192 C78.027993,39.1733382 76.524008,40.1866614 74.924,41.232 C73.323992,42.2773386 71.628009,43.3546611 69.836,44.464 C69.4519981,43.738663 68.9080035,43.0986694 68.204,42.544 C67.4999965,41.9893306 66.7213376,41.4773357 65.868,41.008 C69.9640205,39.3866586 73.5479846,37.5840099 76.62,35.6 C79.6920154,33.6159901 82.3373222,31.2800134 84.556,28.592 C81.0999827,28.6346669 77.8893482,28.6986662 74.924,28.784 C71.9586518,28.8693338 69.409344,28.9973325 67.276,29.168 L67.276,25.008 C69.6226784,25.1786675 72.3639843,25.3066662 75.5,25.392 C78.6360157,25.4773338 82.4013114,25.52 86.796,25.52 C87.8200051,23.9413254 88.7373293,22.1493434 89.548,20.144 C87.755991,20.144 86.1240074,20.1546666 84.652,20.176 C83.1799926,20.1973334 81.8253395,20.2293331 80.588,20.272 C79.3506605,20.3146669 78.1773389,20.3786662 77.068,20.464 C75.9586611,20.5493338 74.8493389,20.6346662 73.74,20.72 L73.74,16.56 C74.8920058,16.6453338 76.0119946,16.7199997 77.1,16.784 C78.1880054,16.8480003 79.3719936,16.9013331 80.652,16.944 C81.9320064,16.9866669 83.371992,17.0186666 84.972,17.04 C86.572008,17.0613334 88.4813222,17.072 90.7,17.072 C90.9560013,16.1759955 91.2013322,15.2586714 91.436,14.32 C91.6706678,13.3813286 91.8733325,12.4853376 92.044,11.632 L92.044,11.632 Z M147.34,13.36 C146.230661,11.9946598 144.99334,10.7680054 143.628,9.68 C142.26266,8.59199456 140.790675,7.6213376 139.212,6.768 L141.388,4.016 C142.156004,4.52800256 142.955996,5.08266368 143.788,5.68 C144.620004,6.27733632 145.430663,6.87466368 146.22,7.472 C147.009337,8.06933632 147.74533,8.65599712 148.428,9.232 C149.11067,9.80800288 149.686664,10.3093312 150.156,10.736 L147.34,13.36 Z M176.972,7.28 C176.801332,7.32266688 176.577335,7.42933248 176.3,7.6 C176.022665,7.77066752 175.596003,8.07999776 175.02,8.528 C174.443997,8.97600224 173.654672,9.6266624 172.652,10.48 C171.649328,11.3333376 170.337341,12.463993 168.716,13.872 L165.9,11.696 C168.076011,10.0319917 169.771994,8.59200608 170.988,7.376 C172.204006,6.15999392 173.238662,4.82667392 174.092,3.376 C175.116005,4.40000512 176.225327,5.14666432 177.42,5.616 C178.017336,5.87200128 178.305333,6.1599984 178.284,6.48 C178.262667,6.8000016 177.825338,7.0666656 176.972,7.28 L176.972,7.28 Z M158.284,34.544 C156.107989,34.7573344 154.284007,34.9173328 152.812,35.024 C151.339993,35.1306672 149.878674,35.2053331 148.428,35.248 C148.342666,34.522663 148.236001,33.9040026 148.108,33.392 C147.979999,32.8799974 147.745335,32.3893357 147.404,31.92 C145.526657,33.5413414 143.457345,35.0879926 141.196,36.56 C138.934655,38.0320074 136.374681,39.4506598 133.516,40.816 C132.662662,39.4933267 131.446675,38.469337 129.868,37.744 C132.129345,36.8906624 134.177324,36.026671 136.012,35.152 C137.846676,34.277329 139.521326,33.3600048 141.036,32.4 C142.550674,31.4399952 143.92666,30.3946723 145.164,29.264 C146.40134,28.1333277 147.531995,26.8853402 148.556,25.52 C145.27065,25.52 142.124015,25.5626662 139.116,25.648 C136.107985,25.7333338 133.729342,25.8186662 131.98,25.904 L131.98,22.064 C132.748004,22.1493338 133.78266,22.2133331 135.084,22.256 C136.38534,22.2986669 137.867992,22.3413331 139.532,22.384 C141.196008,22.4266669 142.977324,22.4586666 144.876,22.48 C146.774676,22.5013334 148.68399,22.512 150.604,22.512 C151.073336,21.7439962 151.521331,20.9440042 151.948,20.112 C152.374669,19.2799958 152.822664,18.3733382 153.292,17.392 C149.281313,17.392 145.825348,17.4346662 142.924,17.52 C140.022652,17.6053338 137.868007,17.7119994 136.46,17.84 L136.46,13.936 C137.953341,14.0640006 140.225318,14.1706662 143.276,14.256 C146.326682,14.3413338 150.070644,14.384 154.508,14.384 C155.276004,12.4213235 155.937331,10.3520109 156.492,8.176 C157.046669,5.99998912 157.430666,3.97334272 157.644,2.096 C159.393342,2.82133696 160.971993,3.22666624 162.38,3.312 C163.105337,3.35466688 163.5,3.52533184 163.564,3.824 C163.628,4.12266816 163.361336,4.42133184 162.764,4.72 C162.550666,4.80533376 162.326668,5.01866496 162.092,5.36 C161.857332,5.70133504 161.569335,6.2453296 161.228,6.992 C160.886665,7.7386704 160.481336,8.70932736 160.012,9.904 C159.542664,11.0986726 158.96667,12.591991 158.284,14.384 C162.25202,14.384 165.643986,14.3733334 168.46,14.352 C171.276014,14.3306666 173.64399,14.2986669 175.564,14.256 C177.48401,14.2133331 179.030661,14.1706669 180.204,14.128 C181.377339,14.0853331 182.326663,14.0213338 183.052,13.936 L183.052,17.84 C182.326663,17.7973331 181.356006,17.7440003 180.14,17.68 C178.923994,17.6159997 177.313343,17.5626669 175.308,17.52 C173.302657,17.4773331 170.828015,17.4453334 167.884,17.424 C164.939985,17.4026666 161.356021,17.392 157.132,17.392 C156.790665,18.2880045 156.428002,19.1626624 156.044,20.016 C155.659998,20.8693376 155.233336,21.7013293 154.764,22.512 C159.926692,22.512 164.449314,22.5013334 168.332,22.48 C172.214686,22.4586666 175.52132,22.4266669 178.252,22.384 C180.98268,22.3413331 183.179992,22.2986669 184.844,22.256 C186.508008,22.2133331 187.702663,22.1493338 188.428,22.064 L188.428,25.904 C187.958664,25.8613331 187.137339,25.8186669 185.964,25.776 C184.790661,25.7333331 183.414675,25.6906669 181.836,25.648 C180.257325,25.6053331 178.550676,25.5733334 176.716,25.552 C174.881324,25.5306666 173.068009,25.52 171.276,25.52 C172.044004,26.5013382 173.035994,27.4933283 174.252,28.496 C175.468006,29.4986717 176.843992,30.4693286 178.38,31.408 C179.916008,32.3466714 181.590658,33.2106627 183.404,34 C185.217342,34.7893373 187.105324,35.4186643 189.068,35.888 C188.38533,36.5280032 187.852002,37.0933309 187.468,37.584 C187.083998,38.0746691 186.721335,38.7466624 186.38,39.6 C184.118655,38.6613286 182.070676,37.7013382 180.236,36.72 C178.401324,35.7386618 176.726674,34.6826723 175.212,33.552 C173.697326,32.4213277 172.332006,31.1946733 171.116,29.872 C169.899994,28.5493267 168.758672,27.0986746 167.692,25.52 L152.908,25.52 C152.182663,26.6293389 151.372004,27.6853283 150.476,28.688 C149.579996,29.6906717 148.641338,30.6826618 147.66,31.664 C148.726672,31.7493338 149.761328,31.8133331 150.764,31.856 C151.766672,31.8986669 152.779995,31.9093334 153.804,31.888 C154.828005,31.8666666 155.894661,31.8133338 157.004,31.728 C158.113339,31.6426662 159.307994,31.5146675 160.588,31.344 C162.422676,31.1306656 164.097326,30.8426685 165.612,30.48 C167.126674,30.1173315 168.438661,29.6800026 169.548,29.168 C169.889335,29.893337 170.166666,30.426665 170.38,30.768 C170.593334,31.109335 170.934664,31.5146643 171.404,31.984 C171.788002,32.3680019 171.937334,32.7199984 171.852,33.04 C171.766666,33.3600016 171.489336,33.4773338 171.02,33.392 C170.891999,33.3493331 170.721334,33.328 170.508,33.328 C170.294666,33.328 169.900003,33.3493331 169.324,33.392 C168.747997,33.4346669 167.894672,33.5199994 166.764,33.648 C165.633328,33.7760006 164.086676,33.9253325 162.124,34.096 L162.124,38.832 C163.788008,38.832 165.27066,38.8106669 166.572,38.768 C167.87334,38.7253331 169.067995,38.6933334 170.156,38.672 C171.244005,38.6506666 172.257329,38.6080003 173.196,38.544 C174.134671,38.4799997 175.094662,38.4053338 176.076,38.32 L176.076,42.224 C175.094662,42.1386662 174.134671,42.0640003 173.196,42 C172.257329,41.9359997 171.244005,41.8933334 170.156,41.872 C169.067995,41.8506666 167.87334,41.8186669 166.572,41.776 C165.27066,41.7333331 163.788008,41.712 162.124,41.712 L162.124,46.128 C167.030691,46.128 171.297315,46.0853338 174.924,46 C178.550685,45.9146662 181.707987,45.7653344 184.396,45.552 L184.396,49.648 C181.707987,49.4346656 178.550685,49.2853338 174.924,49.2 C171.297315,49.1146662 167.030691,49.072 162.124,49.072 L162.124,54.832 C162.124,55.898672 162.038668,56.7733299 161.868,57.456 C161.697332,58.1386701 161.260004,58.7039978 160.556,59.152 C159.851996,59.6000022 158.764007,59.9519987 157.292,60.208 C155.819993,60.4640013 153.804013,60.6773325 151.244,60.848 C151.158666,59.9519955 150.998668,59.1626701 150.764,58.48 C150.529332,57.7973299 150.049337,57.0293376 149.324,56.176 C151.37201,56.4320013 152.993327,56.5706666 154.188,56.592 C155.382673,56.6133334 156.278664,56.5066678 156.876,56.272 C157.473336,56.0373322 157.857332,55.6640026 158.028,55.152 C158.198668,54.6399974 158.284,53.9786707 158.284,53.168 L158.284,49.072 C148.598618,49.072 141.110693,49.2639981 135.82,49.648 L135.82,45.552 C141.110693,45.9360019 148.598618,46.128 158.284,46.128 L158.284,41.712 C156.577325,41.712 155.04134,41.7226666 153.676,41.744 C152.31066,41.7653334 151.052006,41.7973331 149.9,41.84 C148.747994,41.8826669 147.670672,41.9359997 146.668,42 C145.665328,42.0640003 144.673338,42.1386662 143.692,42.224 L143.692,38.32 C145.697343,38.4906675 147.830655,38.6186662 150.092,38.704 C152.353345,38.7893338 155.083984,38.832 158.284,38.832 L158.284,34.544 Z" id="詠春拳-copy" fill="#801F20" sketch:type="MSShapeGroup"></path>
            <path d="M10.008,86.456 C7.6613216,86.456 5.80534016,86.4773331 4.44,86.52 C3.07465984,86.5626669 1.98667072,86.6266662 1.176,86.712 L1.176,82.936 C2.0293376,83.0640006 3.03199424,83.1706662 4.184,83.256 C5.33600576,83.3413338 6.53066048,83.384 7.768,83.384 C8.92000576,83.384 10.0933274,83.3413338 11.288,83.256 C12.4826726,83.1706662 13.5066624,83.0640006 14.36,82.936 C14.1466656,83.7893376 14.0080003,84.845327 13.944,86.104 C13.8799997,87.362673 13.848,88.8453248 13.848,90.552 L13.848,110.648 C14.7866714,110.818668 15.7039955,111.031999 16.6,111.288 C17.4960045,111.544001 18.1786643,111.799999 18.648,112.056 C20.8240109,113.208006 23.149321,114.114663 25.624,114.776 C28.098679,115.437337 30.9679837,115.853332 34.232,116.024 C37.4960163,116.194668 41.2826451,116.141335 45.592,115.864 C49.9013549,115.586665 54.9786374,115.10667 60.824,114.424 C60.098663,115.149337 59.6293344,115.895996 59.416,116.664 C59.2026656,117.432004 59.1173331,118.370661 59.16,119.48 C54.8079782,119.650668 50.9893498,119.778666 47.704,119.864 C44.4186502,119.949334 41.5173459,119.981333 39,119.96 C36.4826541,119.938667 34.2426765,119.832001 32.28,119.64 C30.3173235,119.447999 28.5040083,119.149335 26.84,118.744 C25.1759917,118.338665 23.5546746,117.837336 21.976,117.24 C20.3973254,116.642664 18.712009,115.896004 16.92,115 C15.6826605,114.402664 14.6160045,113.986668 13.72,113.752 C12.8239955,113.517332 11.938671,113.559998 11.064,113.88 C10.189329,114.200002 9.28267136,114.807996 8.344,115.704 C7.40532864,116.600004 6.27467328,117.858659 4.952,119.48 C4.3119968,118.626662 3.75733568,117.954669 3.288,117.464 C2.81866432,116.973331 2.34933568,116.536002 1.88,116.152 C2.98933888,115.127995 3.95999584,114.27467 4.792,113.592 C5.62400416,112.90933 6.3599968,112.344002 7,111.896 C7.6400032,111.447998 8.20533088,111.096001 8.696,110.84 C9.18666912,110.583999 9.62399808,110.413334 10.008,110.328 L10.008,86.456 Z M24.408,92.216 L24.408,98.296 L35.224,98.296 L35.224,92.216 L24.408,92.216 Z M35.224,89.464 L35.224,82.936 L24.408,82.936 L24.408,89.464 L35.224,89.464 Z M50.328,89.464 L50.328,82.936 L38.808,82.936 L38.808,89.464 L50.328,89.464 Z M38.808,92.216 L38.808,98.296 L50.328,98.296 L50.328,92.216 L38.808,92.216 Z M13.144,76.856 C12.0346611,75.3626592 10.5946755,73.7733418 8.824,72.088 C7.05332448,70.4026582 5.12267712,68.8986733 3.032,67.576 L5.592,64.888 C7.76801088,66.3813408 9.7093248,67.9066589 11.416,69.464 C13.1226752,71.0213411 14.7226592,72.6106586 16.216,74.232 L13.144,76.856 Z M44.696,69.688 L35.992,69.688 L29.88,69.688 C28.2373251,69.688 26.8400058,69.7093331 25.688,69.752 C24.5359942,69.7946669 23.5333376,69.8373331 22.68,69.88 C21.8266624,69.9226669 20.9520045,69.9866662 20.056,70.072 L20.056,66.296 C20.9520045,66.3813338 21.7946627,66.4559997 22.584,66.52 C23.3733373,66.5840003 24.3333277,66.6373331 25.464,66.68 C26.5946723,66.7226669 28.0133248,66.7546666 29.72,66.776 C31.4266752,66.7973334 33.6239866,66.808 36.312,66.808 C38.8720128,66.808 41.0159914,66.7973334 42.744,66.776 C44.4720086,66.7546666 45.9333274,66.7226669 47.128,66.68 C48.3226726,66.6373331 49.3359958,66.5840003 50.168,66.52 C51.0000042,66.4559997 51.8426624,66.3813338 52.696,66.296 L52.696,69.88 C52.1413306,69.9653338 51.5653363,70.0826659 50.968,70.232 C50.3706637,70.3813341 49.6133379,70.7119974 48.696,71.224 C47.7786621,71.7360026 46.6373402,72.4719952 45.272,73.432 C43.9066598,74.3920048 42.1786771,75.7039917 40.088,77.368 C40.429335,77.5813344 40.7813315,77.7946656 41.144,78.008 C41.5066685,78.2213344 41.858665,78.4346656 42.2,78.648 L41.048,80.056 C43.1386771,80.056 44.9199926,80.0346669 46.392,79.992 C47.8640074,79.9493331 49.1226614,79.9066669 50.168,79.864 C51.2133386,79.8213331 52.0879965,79.7680003 52.792,79.704 C53.4960035,79.6399997 54.1039974,79.5653338 54.616,79.48 C54.4026656,80.3760045 54.2640003,81.3893277 54.2,82.52 C54.1359997,83.6506723 54.104,85.0906579 54.104,86.84 L54.104,106.936 C54.104,107.704004 54.0186675,108.375997 53.848,108.952 C53.6773325,109.528003 53.2826698,110.029331 52.664,110.456 C52.0453302,110.882669 51.1493392,111.266665 49.976,111.608 C48.8026608,111.949335 47.1920102,112.269332 45.144,112.568 C45.0586662,111.927997 44.845335,111.23467 44.504,110.488 C44.162665,109.74133 43.629337,108.962671 42.904,108.152 C44.5680083,108.280001 45.8906618,108.333333 46.872,108.312 C47.8533382,108.290667 48.5999974,108.173334 49.112,107.96 C49.6240026,107.746666 49.9546659,107.426669 50.104,107 C50.2533341,106.573331 50.328,106.040003 50.328,105.4 L50.328,101.048 L38.808,101.048 C38.808,103.053343 38.8399997,104.866659 38.904,106.488 C38.9680003,108.109341 39.0639994,109.410662 39.192,110.392 L34.84,110.392 C34.9680006,109.410662 35.0639997,108.098675 35.128,106.456 C35.1920003,104.813325 35.224,103.010676 35.224,101.048 L24.408,101.048 L24.408,111.352 L20.312,111.352 C20.4826675,110.11466 20.6106662,108.941339 20.696,107.832 C20.7813338,106.722661 20.824,105.528006 20.824,104.248 L20.824,86.84 C20.824,85.773328 20.8133334,84.877337 20.792,84.152 C20.7706666,83.426663 20.7493334,82.8080026 20.728,82.296 C20.7066666,81.7839974 20.6640003,81.3146688 20.6,80.888 C20.5359997,80.4613312 20.4613338,79.9920026 20.376,79.48 C21.6560064,79.6080006 22.7759952,79.7146662 23.736,79.8 C24.6960048,79.8853338 25.7413277,79.9386666 26.872,79.96 C28.0026723,79.9813334 29.3573254,80.0026666 30.936,80.024 C32.5146746,80.0453334 34.5839872,80.056 37.144,80.056 C35.6933261,79.0746618 34.1466749,78.1786707 32.504,77.368 C30.8613251,76.5573293 29.0160102,75.7040045 26.968,74.808 L29.144,72.184 C30.552007,72.7813363 31.885327,73.346664 33.144,73.88 C34.402673,74.413336 35.6079942,74.9786637 36.76,75.576 L44.696,69.688 Z M79.512,121.016 L75.16,121.016 C75.2880006,119.77866 75.3839997,118.669338 75.448,117.688 C75.5120003,116.706662 75.5759997,115.800004 75.64,114.968 C75.7040003,114.135996 75.7466666,113.34667 75.768,112.6 C75.7893334,111.85333 75.8,111.117337 75.8,110.392 L75.8,94.712 C75.8,93.303993 75.7680003,92.1093382 75.704,91.128 C75.6399997,90.1466618 75.5226675,89.2506707 75.352,88.44 C77.7840122,88.6106675 80.7173162,88.7386662 84.152,88.824 C87.5866838,88.9093338 91.2879802,88.952 95.256,88.952 C100.077357,88.952 104.098651,88.9093338 107.32,88.824 C110.541349,88.7386662 113.303988,88.6106675 115.608,88.44 C115.394666,89.4213382 115.245334,90.4026618 115.16,91.384 C115.074666,92.3653382 115.032,93.4746605 115.032,94.712 L115.032,114.872 C115.032,115.981339 114.893335,116.90933 114.616,117.656 C114.338665,118.40267 113.741338,118.999998 112.824,119.448 C111.906662,119.896002 110.552009,120.226666 108.76,120.44 C106.967991,120.653334 104.557348,120.76 101.528,120.76 C101.741334,118.925324 101.272006,117.346673 100.12,116.024 C102.552012,116.408002 104.493326,116.632 105.944,116.696 C107.394674,116.76 108.503996,116.685334 109.272,116.472 C110.040004,116.258666 110.541332,115.928002 110.776,115.48 C111.010668,115.031998 111.128,114.488003 111.128,113.848 L111.128,108.984 L79.512,108.984 L79.512,121.016 Z M79.512,100.536 L79.512,106.04 L111.128,106.04 L111.128,100.536 L79.512,100.536 Z M111.128,97.656 L111.128,91.832 L79.512,91.832 L79.512,97.656 L111.128,97.656 Z M85.528,69.304 C85.528,68.7493306 85.5066669,68.1626698 85.464,67.544 C85.4213331,66.9253302 85.3893334,66.3280029 85.368,65.752 C85.3466666,65.1759971 85.3146669,64.6426691 85.272,64.152 C85.2293331,63.6613309 85.1866669,63.2666682 85.144,62.968 C85.9546707,63.0960006 86.7759958,63.1813331 87.608,63.224 C88.4400042,63.2666669 89.1119974,63.2666669 89.624,63.224 C90.2213363,63.1386662 90.5519997,63.2239987 90.616,63.48 C90.6800003,63.7360013 90.4346694,64.034665 89.88,64.376 C89.7519994,64.4613338 89.6453338,64.599999 89.56,64.792 C89.4746662,64.984001 89.4000003,65.2933312 89.336,65.72 C89.2719997,66.1466688 89.2293334,66.7119965 89.208,67.416 C89.1866666,68.1200035 89.176,69.005328 89.176,70.072 L89.176,80.376 C89.176,81.2720045 89.1973331,82.3173274 89.24,83.512 C89.2826669,84.7066726 89.3466662,85.7733286 89.432,86.712 L85.208,86.712 C85.2933338,85.986663 85.3679997,85.1440048 85.432,84.184 C85.4960003,83.2239952 85.528,82.3173376 85.528,81.464 C83.4799898,81.805335 81.6240083,82.1359984 79.96,82.456 C78.2959917,82.7760016 76.7706736,83.0853318 75.384,83.384 C73.9973264,83.6826682 72.7066726,83.9919984 71.512,84.312 C70.3173274,84.6320016 69.1440058,84.9413318 67.992,85.24 C67.7786656,84.3866624 67.5226682,83.6400032 67.224,83 C66.9253318,82.3599968 66.5200026,81.6986701 66.008,81.016 C68.4400122,80.9733331 71.255984,80.7600019 74.456,80.376 C77.656016,79.9919981 81.3466458,79.3733376 85.528,78.52 L85.528,72.44 L74.008,72.44 C72.7279936,72.44 71.6186714,72.4613331 70.68,72.504 C69.7413286,72.5466669 68.909337,72.6319994 68.184,72.76 L68.184,68.92 C68.9946707,69.0480006 69.837329,69.1439997 70.712,69.208 C71.586671,69.2720003 72.7066598,69.304 74.072,69.304 L85.528,69.304 Z M103.064,71.672 C104.898676,71.1599974 106.53066,70.6693357 107.96,70.2 C109.38934,69.7306643 110.658661,69.2933354 111.768,68.888 C112.877339,68.4826646 113.858662,68.0666688 114.712,67.64 C115.565338,67.2133312 116.33333,66.7653357 117.016,66.296 C117.826671,67.6613402 118.786661,68.7706624 119.896,69.624 C120.365336,70.0080019 120.525334,70.3386653 120.376,70.616 C120.226666,70.8933347 119.789337,70.9893338 119.064,70.904 C118.765332,70.8613331 118.338669,70.8719997 117.784,70.936 C117.229331,71.0000003 116.376006,71.1706653 115.224,71.448 C114.071994,71.7253347 112.525343,72.130664 110.584,72.664 C108.642657,73.197336 106.136015,73.9119955 103.064,74.808 L103.064,77.944 C103.064,78.9680051 103.149332,79.7893302 103.32,80.408 C103.490668,81.0266698 103.863997,81.4959984 104.44,81.816 C105.016003,82.1360016 105.858661,82.3493328 106.968,82.456 C108.077339,82.5626672 109.570657,82.616 111.448,82.616 C113.240009,82.616 114.679995,82.5306675 115.768,82.36 C116.856005,82.1893325 117.698664,81.8480026 118.296,81.336 C118.893336,80.8239974 119.309332,80.1200045 119.544,79.224 C119.778668,78.3279955 119.959999,77.1546739 120.088,75.704 C121.112005,76.9840064 122.391992,77.8159981 123.928,78.2 C123.415997,79.8640083 122.914669,81.1866618 122.424,82.168 C121.933331,83.1493382 121.261338,83.9173306 120.408,84.472 C119.554662,85.0266694 118.41334,85.3893325 116.984,85.56 C115.55466,85.7306675 113.645345,85.816 111.256,85.816 C108.52532,85.816 106.370675,85.7306675 104.792,85.56 C103.213325,85.3893325 102.018671,85.037336 101.208,84.504 C100.397329,83.970664 99.8853344,83.2133382 99.672,82.232 C99.4586656,81.2506618 99.352,79.9706746 99.352,78.392 L99.352,69.624 C99.352,67.8746579 99.3200003,66.4560054 99.256,65.368 C99.1919997,64.2799946 99.1173338,63.373337 99.032,62.648 C99.9706714,62.8186675 100.823996,62.9359997 101.592,63 C102.360004,63.0640003 103.149329,63.0746669 103.96,63.032 C105.282673,63.032 105.389339,63.4586624 104.28,64.312 C103.469329,64.9093363 103.064,65.6133293 103.064,66.424 L103.064,71.672 Z M146.84,74.36 C145.730661,72.9946598 144.49334,71.7680054 143.128,70.68 C141.76266,69.5919946 140.290675,68.6213376 138.712,67.768 L140.888,65.016 C141.656004,65.5280026 142.455996,66.0826637 143.288,66.68 C144.120004,67.2773363 144.930663,67.8746637 145.72,68.472 C146.509337,69.0693363 147.24533,69.6559971 147.928,70.232 C148.61067,70.8080029 149.186664,71.3093312 149.656,71.736 L146.84,74.36 Z M176.472,68.28 C176.301332,68.3226669 176.077335,68.4293325 175.8,68.6 C175.522665,68.7706675 175.096003,69.0799978 174.52,69.528 C173.943997,69.9760022 173.154672,70.6266624 172.152,71.48 C171.149328,72.3333376 169.837341,73.463993 168.216,74.872 L165.4,72.696 C167.576011,71.0319917 169.271994,69.5920061 170.488,68.376 C171.704006,67.1599939 172.738662,65.8266739 173.592,64.376 C174.616005,65.4000051 175.725327,66.1466643 176.92,66.616 C177.517336,66.8720013 177.805333,67.1599984 177.784,67.48 C177.762667,67.8000016 177.325338,68.0666656 176.472,68.28 L176.472,68.28 Z M157.784,95.544 C155.607989,95.7573344 153.784007,95.9173328 152.312,96.024 C150.839993,96.1306672 149.378674,96.2053331 147.928,96.248 C147.842666,95.522663 147.736001,94.9040026 147.608,94.392 C147.479999,93.8799974 147.245335,93.3893357 146.904,92.92 C145.026657,94.5413414 142.957345,96.0879926 140.696,97.56 C138.434655,99.0320074 135.874681,100.45066 133.016,101.816 C132.162662,100.493327 130.946675,99.469337 129.368,98.744 C131.629345,97.8906624 133.677324,97.026671 135.512,96.152 C137.346676,95.277329 139.021326,94.3600048 140.536,93.4 C142.050674,92.4399952 143.42666,91.3946723 144.664,90.264 C145.90134,89.1333277 147.031995,87.8853402 148.056,86.52 C144.77065,86.52 141.624015,86.5626662 138.616,86.648 C135.607985,86.7333338 133.229342,86.8186662 131.48,86.904 L131.48,83.064 C132.248004,83.1493338 133.28266,83.2133331 134.584,83.256 C135.88534,83.2986669 137.367992,83.3413331 139.032,83.384 C140.696008,83.4266669 142.477324,83.4586666 144.376,83.48 C146.274676,83.5013334 148.18399,83.512 150.104,83.512 C150.573336,82.7439962 151.021331,81.9440042 151.448,81.112 C151.874669,80.2799958 152.322664,79.3733382 152.792,78.392 C148.781313,78.392 145.325348,78.4346662 142.424,78.52 C139.522652,78.6053338 137.368007,78.7119994 135.96,78.84 L135.96,74.936 C137.453341,75.0640006 139.725318,75.1706662 142.776,75.256 C145.826682,75.3413338 149.570644,75.384 154.008,75.384 C154.776004,73.4213235 155.437331,71.3520109 155.992,69.176 C156.546669,66.9999891 156.930666,64.9733427 157.144,63.096 C158.893342,63.821337 160.471993,64.2266662 161.88,64.312 C162.605337,64.3546669 163,64.5253318 163.064,64.824 C163.128,65.1226682 162.861336,65.4213318 162.264,65.72 C162.050666,65.8053338 161.826668,66.018665 161.592,66.36 C161.357332,66.701335 161.069335,67.2453296 160.728,67.992 C160.386665,68.7386704 159.981336,69.7093274 159.512,70.904 C159.042664,72.0986726 158.46667,73.591991 157.784,75.384 C161.75202,75.384 165.143986,75.3733334 167.96,75.352 C170.776014,75.3306666 173.14399,75.2986669 175.064,75.256 C176.98401,75.2133331 178.530661,75.1706669 179.704,75.128 C180.877339,75.0853331 181.826663,75.0213338 182.552,74.936 L182.552,78.84 C181.826663,78.7973331 180.856006,78.7440003 179.64,78.68 C178.423994,78.6159997 176.813343,78.5626669 174.808,78.52 C172.802657,78.4773331 170.328015,78.4453334 167.384,78.424 C164.439985,78.4026666 160.856021,78.392 156.632,78.392 C156.290665,79.2880045 155.928002,80.1626624 155.544,81.016 C155.159998,81.8693376 154.733336,82.7013293 154.264,83.512 C159.426692,83.512 163.949314,83.5013334 167.832,83.48 C171.714686,83.4586666 175.02132,83.4266669 177.752,83.384 C180.48268,83.3413331 182.679992,83.2986669 184.344,83.256 C186.008008,83.2133331 187.202663,83.1493338 187.928,83.064 L187.928,86.904 C187.458664,86.8613331 186.637339,86.8186669 185.464,86.776 C184.290661,86.7333331 182.914675,86.6906669 181.336,86.648 C179.757325,86.6053331 178.050676,86.5733334 176.216,86.552 C174.381324,86.5306666 172.568009,86.52 170.776,86.52 C171.544004,87.5013382 172.535994,88.4933283 173.752,89.496 C174.968006,90.4986717 176.343992,91.4693286 177.88,92.408 C179.416008,93.3466714 181.090658,94.2106627 182.904,95 C184.717342,95.7893373 186.605324,96.4186643 188.568,96.888 C187.88533,97.5280032 187.352002,98.0933309 186.968,98.584 C186.583998,99.0746691 186.221335,99.7466624 185.88,100.6 C183.618655,99.6613286 181.570676,98.7013382 179.736,97.72 C177.901324,96.7386618 176.226674,95.6826723 174.712,94.552 C173.197326,93.4213277 171.832006,92.1946733 170.616,90.872 C169.399994,89.5493267 168.258672,88.0986746 167.192,86.52 L152.408,86.52 C151.682663,87.6293389 150.872004,88.6853283 149.976,89.688 C149.079996,90.6906717 148.141338,91.6826618 147.16,92.664 C148.226672,92.7493338 149.261328,92.8133331 150.264,92.856 C151.266672,92.8986669 152.279995,92.9093334 153.304,92.888 C154.328005,92.8666666 155.394661,92.8133338 156.504,92.728 C157.613339,92.6426662 158.807994,92.5146675 160.088,92.344 C161.922676,92.1306656 163.597326,91.8426685 165.112,91.48 C166.626674,91.1173315 167.938661,90.6800026 169.048,90.168 C169.389335,90.893337 169.666666,91.426665 169.88,91.768 C170.093334,92.109335 170.434664,92.5146643 170.904,92.984 C171.288002,93.3680019 171.437334,93.7199984 171.352,94.04 C171.266666,94.3600016 170.989336,94.4773338 170.52,94.392 C170.391999,94.3493331 170.221334,94.328 170.008,94.328 C169.794666,94.328 169.400003,94.3493331 168.824,94.392 C168.247997,94.4346669 167.394672,94.5199994 166.264,94.648 C165.133328,94.7760006 163.586676,94.9253325 161.624,95.096 L161.624,99.832 C163.288008,99.832 164.77066,99.8106669 166.072,99.768 C167.37334,99.7253331 168.567995,99.6933334 169.656,99.672 C170.744005,99.6506666 171.757329,99.6080003 172.696,99.544 C173.634671,99.4799997 174.594662,99.4053338 175.576,99.32 L175.576,103.224 C174.594662,103.138666 173.634671,103.064 172.696,103 C171.757329,102.936 170.744005,102.893333 169.656,102.872 C168.567995,102.850667 167.37334,102.818667 166.072,102.776 C164.77066,102.733333 163.288008,102.712 161.624,102.712 L161.624,107.128 C166.530691,107.128 170.797315,107.085334 174.424,107 C178.050685,106.914666 181.207987,106.765334 183.896,106.552 L183.896,110.648 C181.207987,110.434666 178.050685,110.285334 174.424,110.2 C170.797315,110.114666 166.530691,110.072 161.624,110.072 L161.624,115.832 C161.624,116.898672 161.538668,117.77333 161.368,118.456 C161.197332,119.13867 160.760004,119.703998 160.056,120.152 C159.351996,120.600002 158.264007,120.951999 156.792,121.208 C155.319993,121.464001 153.304013,121.677332 150.744,121.848 C150.658666,120.951996 150.498668,120.16267 150.264,119.48 C150.029332,118.79733 149.549337,118.029338 148.824,117.176 C150.87201,117.432001 152.493327,117.570667 153.688,117.592 C154.882673,117.613333 155.778664,117.506668 156.376,117.272 C156.973336,117.037332 157.357332,116.664003 157.528,116.152 C157.698668,115.639997 157.784,114.978671 157.784,114.168 L157.784,110.072 C148.098618,110.072 140.610693,110.263998 135.32,110.648 L135.32,106.552 C140.610693,106.936002 148.098618,107.128 157.784,107.128 L157.784,102.712 C156.077325,102.712 154.54134,102.722667 153.176,102.744 C151.81066,102.765333 150.552006,102.797333 149.4,102.84 C148.247994,102.882667 147.170672,102.936 146.168,103 C145.165328,103.064 144.173338,103.138666 143.192,103.224 L143.192,99.32 C145.197343,99.4906675 147.330655,99.6186662 149.592,99.704 C151.853345,99.7893338 154.583984,99.832 157.784,99.832 L157.784,95.544 Z" id="通背拳-copy" fill="#80914C" sketch:type="MSShapeGroup"></path>
            <path d="M35.8,175.552 C34.6479942,173.930659 33.2400083,172.170676 31.576,170.272 C29.9119917,168.373324 28.2693414,166.698674 26.648,165.248 L28.952,162.752 C29.7626707,163.477337 30.6159955,164.266662 31.512,165.12 C32.4080045,165.973338 33.3039955,166.858662 34.2,167.776 C35.0960045,168.693338 35.9599958,169.610662 36.792,170.528 C37.6240042,171.445338 38.3813299,172.287996 39.064,173.056 L35.8,175.552 Z M32.024,139.968 L41.208,139.968 C43.9173469,139.968 46.3279894,139.946667 48.44,139.904 C50.5520106,139.861333 52.3866589,139.829333 53.944,139.808 C55.5013411,139.786667 56.8559942,139.733334 58.008,139.648 L58.008,143.616 C56.8986611,143.530666 55.5760077,143.466667 54.04,143.424 C52.5039923,143.381333 50.7226768,143.338667 48.696,143.296 C46.6693232,143.253333 44.3546797,143.232 41.752,143.232 L32.984,143.232 C34.0080051,146.346682 35.3519917,149.450651 37.016,152.544 C38.6800083,155.637349 40.6426554,158.613319 42.904,161.472 C45.1653446,164.330681 47.725319,167.039987 50.584,169.6 C53.442681,172.160013 56.5573165,174.46399 59.928,176.512 C59.3306637,176.853335 58.7226698,177.33333 58.104,177.952 C57.4853302,178.57067 56.8773363,179.306662 56.28,180.16 C49.4532992,174.911974 44.0240202,169.504028 39.992,163.936 C35.9599798,158.367972 33.0693421,152.853361 31.32,147.392 C30.7226637,150.378682 29.6773408,153.407985 28.184,156.48 C26.6906592,159.552015 24.8346778,162.549319 22.616,165.472 C20.3973222,168.394681 17.858681,171.18932 15,173.856 C12.141319,176.52268 9.06934976,178.901323 5.784,180.992 C5.31466432,180.266663 4.813336,179.648003 4.28,179.136 C3.746664,178.623997 2.98933824,178.133336 2.008,177.664 C5.50668416,175.999992 8.81331776,173.83468 11.928,171.168 C15.0426822,168.50132 17.7946547,165.600016 20.184,162.464 C22.5733453,159.327984 24.4826595,156.096017 25.912,152.768 C27.3413405,149.439983 28.1199994,146.261348 28.248,143.232 C22.5306381,143.232 17.6026874,143.253333 13.464,143.296 C9.32531264,143.338667 6.12534464,143.445332 3.864,143.616 L3.864,139.648 C6.12534464,139.776001 9.35731232,139.861333 13.56,139.904 C17.7626877,139.946667 22.7439712,139.968 28.504,139.968 C28.5466669,138.559993 28.5893331,137.045341 28.632,135.424 C28.6746669,133.802659 28.6853334,132.245341 28.664,130.752 C28.6426666,129.258659 28.6106669,127.904006 28.568,126.688 C28.5253331,125.471994 28.4613338,124.544003 28.376,123.904 C29.2720045,124.074668 30.1039962,124.192 30.872,124.256 C31.6400038,124.32 32.4719955,124.245334 33.368,124.032 C33.8800026,123.903999 34.1679997,124.042665 34.232,124.448 C34.2960003,124.853335 34.0933357,125.183999 33.624,125.44 C33.2399981,125.653334 32.9306678,127.029321 32.696,129.568 C32.4613322,132.106679 32.2373344,135.573311 32.024,139.968 L32.024,139.968 Z M124.568,179.648 C122.135988,179.434666 119.320016,179.274667 116.12,179.168 C112.919984,179.061333 109.037356,179.008 104.472,179.008 C99.9066438,179.008 96.024016,179.061333 92.824,179.168 C89.623984,179.274667 86.8080122,179.434666 84.376,179.648 L84.376,175.04 C86.8080122,175.253334 89.623984,175.413333 92.824,175.52 C96.024016,175.626667 99.9066438,175.68 104.472,175.68 C109.037356,175.68 112.919984,175.626667 116.12,175.52 C119.320016,175.413333 122.135988,175.253334 124.568,175.04 L124.568,179.648 Z M119.96,131.136 C119.533331,131.349334 119.117335,131.605332 118.712,131.904 C118.306665,132.202668 117.890669,132.565331 117.464,132.992 L106.776,142.528 L106.776,169.792 C106.776,170.645338 106.701334,171.338664 106.552,171.872 C106.402666,172.405336 106.040003,172.853332 105.464,173.216 C104.887997,173.578668 104.045339,173.845332 102.936,174.016 C101.826661,174.186668 100.290676,174.314666 98.328,174.4 C98.4133338,173.546662 98.360001,172.800003 98.168,172.16 C97.975999,171.519997 97.4746707,170.752004 96.664,169.856 C98.072007,170.154668 99.213329,170.346666 100.088,170.432 C100.962671,170.517334 101.623998,170.485334 102.072,170.336 C102.520002,170.186666 102.818666,169.920002 102.968,169.536 C103.117334,169.151998 103.192,168.640003 103.192,168 L103.192,140.992 L113.88,132.032 L100.44,132.032 C97.965321,132.032 95.9173414,132.064 94.296,132.128 C92.6746586,132.192 91.2666726,132.266666 90.072,132.352 L90.072,128.576 C91.2666726,128.661334 93.0159885,128.725333 95.32,128.768 C97.6240115,128.810667 100.717314,128.832 104.6,128.832 C108.397352,128.832 111.62932,128.8 114.296,128.736 C116.96268,128.672 118.850661,128.576001 119.96,128.448 L119.96,131.136 Z M118.808,159.36 C119.789338,160.72534 120.642663,161.994661 121.368,163.168 C122.093337,164.341339 122.818663,165.567994 123.544,166.848 L120.792,169.024 C120.194664,167.78666 119.608003,166.645339 119.032,165.6 C118.455997,164.554661 117.869336,163.541338 117.272,162.56 C115.565325,165.717349 113.368013,168.767985 110.68,171.712 C110.210664,171.071997 109.762669,170.602668 109.336,170.304 C108.909331,170.005332 108.226671,169.685335 107.288,169.344 C108.909341,168.021327 110.37066,166.624007 111.672,165.152 C112.97334,163.679993 114.199994,161.834678 115.352,159.616 C114.498662,158.37866 113.549339,157.098673 112.504,155.776 C111.458661,154.453327 110.232007,152.981341 108.824,151.36 L111,149.568 C112.280006,150.976007 113.346662,152.191995 114.2,153.216 C115.053338,154.240005 115.906662,155.327994 116.76,156.48 C117.357336,154.986659 117.837332,153.440008 118.2,151.84 C118.562668,150.239992 118.893332,148.437343 119.192,146.432 L113.56,146.432 C112.834663,146.432 112.045338,146.464 111.192,146.528 C110.338662,146.592 109.634669,146.687999 109.08,146.816 L109.08,143.104 C109.890671,143.189334 110.818661,143.253333 111.864,143.296 C112.909339,143.338667 114.285325,143.36 115.992,143.36 C117.698675,143.36 119.191994,143.338667 120.472,143.296 C121.752006,143.253333 122.797329,143.189334 123.608,143.104 C122.754662,146.816019 121.965337,149.930654 121.24,152.448 C120.514663,154.965346 119.704004,157.269323 118.808,159.36 L118.808,159.36 Z M91.672,162.624 L91.672,167.552 L87.96,167.552 C88.0880006,166.015992 88.1839997,164.650673 88.248,163.456 C88.3120003,162.261327 88.344,160.917341 88.344,159.424 L88.344,147.968 C88.344,146.815994 88.3333334,145.877337 88.312,145.152 C88.2906666,144.426663 88.2373338,143.72267 88.152,143.04 C88.4080013,143.082667 88.6746653,143.125333 88.952,143.168 C89.2293347,143.210667 89.5706646,143.242667 89.976,143.264 C90.3813354,143.285333 90.8933302,143.296 91.512,143.296 L93.848,143.296 L96.184,143.296 C96.8026698,143.296 97.3253312,143.285333 97.752,143.264 C98.1786688,143.242667 98.5199987,143.210667 98.776,143.168 C99.0320013,143.125333 99.2666656,143.082667 99.48,143.04 C99.4373331,143.594669 99.4053334,144.234663 99.384,144.96 C99.3626666,145.685337 99.352,146.687994 99.352,147.968 L99.352,157.696 L99.352,159.68 C99.352,160.277336 99.3733331,160.863997 99.416,161.44 C99.4586669,162.016003 99.4906666,162.602664 99.512,163.2 C99.5333334,163.797336 99.5866662,164.43733 99.672,165.12 L96.152,165.12 L96.152,162.624 L91.672,162.624 Z M96.152,159.68 L96.152,146.24 L91.672,146.24 L91.672,159.68 L96.152,159.68 Z M79.256,137.856 C81.0906758,137.813333 82.7333261,137.76 84.184,137.696 C85.6346739,137.632 86.893328,137.514668 87.96,137.344 L87.96,141.312 C86.893328,141.141332 85.6346739,141.024 84.184,140.96 C82.7333261,140.896 81.0906758,140.842667 79.256,140.8 L79.256,143.104 C81.0906758,145.237344 82.5733277,147.050659 83.704,148.544 C84.8346723,150.037341 85.8693286,151.509326 86.808,152.96 L83.672,155.328 C82.946663,153.834659 82.2426701,152.490673 81.56,151.296 C80.8773299,150.101327 80.1093376,148.928006 79.256,147.776 L79.256,170.432 C79.256,172.138675 79.2986662,174.047989 79.384,176.16 C79.4693338,178.272011 79.5973325,180.373323 79.768,182.464 L75.096,182.464 C75.2666675,180.373323 75.3946662,178.272011 75.48,176.16 C75.5653338,174.047989 75.608,172.138675 75.608,170.432 L75.608,150.144 C74.9253299,152.661346 74.1146714,155.274653 73.176,157.984 C72.2373286,160.693347 71.0213408,163.775983 69.528,167.232 C69.0586643,166.933332 68.4293373,166.656001 67.64,166.4 C66.8506627,166.143999 66.093337,165.930668 65.368,165.76 C66.6906733,163.71199 67.8533283,161.706676 68.856,159.744 C69.8586717,157.781324 70.7439962,155.786677 71.512,153.76 C72.2800038,151.733323 72.9413306,149.653344 73.496,147.52 C74.0506694,145.386656 74.5413312,143.146678 74.968,140.8 C73.3466586,140.842667 71.8533402,140.896 70.488,140.96 C69.1226598,141.024 67.9493382,141.141332 66.968,141.312 L66.968,137.344 C68.034672,137.514668 69.2933261,137.632 70.744,137.696 C72.1946739,137.76 73.815991,137.813333 75.608,137.856 C75.608,134.229315 75.5440006,131.349344 75.416,129.216 C75.2879994,127.082656 75.1386675,125.39734 74.968,124.16 C75.7786707,124.373334 76.6106624,124.522666 77.464,124.608 C78.3173376,124.693334 79.106663,124.736 79.832,124.736 C80.4720032,124.736 80.8239997,124.853332 80.888,125.088 C80.9520003,125.322668 80.7280026,125.738664 80.216,126.336 C79.874665,126.762669 79.6293341,127.338663 79.48,128.064 C79.3306659,128.789337 79.256,129.642662 79.256,130.624 L79.256,137.856 Z M146.84,135.36 C145.730661,133.99466 144.49334,132.768005 143.128,131.68 C141.76266,130.591995 140.290675,129.621338 138.712,128.768 L140.888,126.016 C141.656004,126.528003 142.455996,127.082664 143.288,127.68 C144.120004,128.277336 144.930663,128.874664 145.72,129.472 C146.509337,130.069336 147.24533,130.655997 147.928,131.232 C148.61067,131.808003 149.186664,132.309331 149.656,132.736 L146.84,135.36 Z M176.472,129.28 C176.301332,129.322667 176.077335,129.429332 175.8,129.6 C175.522665,129.770668 175.096003,130.079998 174.52,130.528 C173.943997,130.976002 173.154672,131.626662 172.152,132.48 C171.149328,133.333338 169.837341,134.463993 168.216,135.872 L165.4,133.696 C167.576011,132.031992 169.271994,130.592006 170.488,129.376 C171.704006,128.159994 172.738662,126.826674 173.592,125.376 C174.616005,126.400005 175.725327,127.146664 176.92,127.616 C177.517336,127.872001 177.805333,128.159998 177.784,128.48 C177.762667,128.800002 177.325338,129.066666 176.472,129.28 L176.472,129.28 Z M157.784,156.544 C155.607989,156.757334 153.784007,156.917333 152.312,157.024 C150.839993,157.130667 149.378674,157.205333 147.928,157.248 C147.842666,156.522663 147.736001,155.904003 147.608,155.392 C147.479999,154.879997 147.245335,154.389336 146.904,153.92 C145.026657,155.541341 142.957345,157.087993 140.696,158.56 C138.434655,160.032007 135.874681,161.45066 133.016,162.816 C132.162662,161.493327 130.946675,160.469337 129.368,159.744 C131.629345,158.890662 133.677324,158.026671 135.512,157.152 C137.346676,156.277329 139.021326,155.360005 140.536,154.4 C142.050674,153.439995 143.42666,152.394672 144.664,151.264 C145.90134,150.133328 147.031995,148.88534 148.056,147.52 C144.77065,147.52 141.624015,147.562666 138.616,147.648 C135.607985,147.733334 133.229342,147.818666 131.48,147.904 L131.48,144.064 C132.248004,144.149334 133.28266,144.213333 134.584,144.256 C135.88534,144.298667 137.367992,144.341333 139.032,144.384 C140.696008,144.426667 142.477324,144.458667 144.376,144.48 C146.274676,144.501333 148.18399,144.512 150.104,144.512 C150.573336,143.743996 151.021331,142.944004 151.448,142.112 C151.874669,141.279996 152.322664,140.373338 152.792,139.392 C148.781313,139.392 145.325348,139.434666 142.424,139.52 C139.522652,139.605334 137.368007,139.711999 135.96,139.84 L135.96,135.936 C137.453341,136.064001 139.725318,136.170666 142.776,136.256 C145.826682,136.341334 149.570644,136.384 154.008,136.384 C154.776004,134.421324 155.437331,132.352011 155.992,130.176 C156.546669,127.999989 156.930666,125.973343 157.144,124.096 C158.893342,124.821337 160.471993,125.226666 161.88,125.312 C162.605337,125.354667 163,125.525332 163.064,125.824 C163.128,126.122668 162.861336,126.421332 162.264,126.72 C162.050666,126.805334 161.826668,127.018665 161.592,127.36 C161.357332,127.701335 161.069335,128.24533 160.728,128.992 C160.386665,129.73867 159.981336,130.709327 159.512,131.904 C159.042664,133.098673 158.46667,134.591991 157.784,136.384 C161.75202,136.384 165.143986,136.373333 167.96,136.352 C170.776014,136.330667 173.14399,136.298667 175.064,136.256 C176.98401,136.213333 178.530661,136.170667 179.704,136.128 C180.877339,136.085333 181.826663,136.021334 182.552,135.936 L182.552,139.84 C181.826663,139.797333 180.856006,139.744 179.64,139.68 C178.423994,139.616 176.813343,139.562667 174.808,139.52 C172.802657,139.477333 170.328015,139.445333 167.384,139.424 C164.439985,139.402667 160.856021,139.392 156.632,139.392 C156.290665,140.288004 155.928002,141.162662 155.544,142.016 C155.159998,142.869338 154.733336,143.701329 154.264,144.512 C159.426692,144.512 163.949314,144.501333 167.832,144.48 C171.714686,144.458667 175.02132,144.426667 177.752,144.384 C180.48268,144.341333 182.679992,144.298667 184.344,144.256 C186.008008,144.213333 187.202663,144.149334 187.928,144.064 L187.928,147.904 C187.458664,147.861333 186.637339,147.818667 185.464,147.776 C184.290661,147.733333 182.914675,147.690667 181.336,147.648 C179.757325,147.605333 178.050676,147.573333 176.216,147.552 C174.381324,147.530667 172.568009,147.52 170.776,147.52 C171.544004,148.501338 172.535994,149.493328 173.752,150.496 C174.968006,151.498672 176.343992,152.469329 177.88,153.408 C179.416008,154.346671 181.090658,155.210663 182.904,156 C184.717342,156.789337 186.605324,157.418664 188.568,157.888 C187.88533,158.528003 187.352002,159.093331 186.968,159.584 C186.583998,160.074669 186.221335,160.746662 185.88,161.6 C183.618655,160.661329 181.570676,159.701338 179.736,158.72 C177.901324,157.738662 176.226674,156.682672 174.712,155.552 C173.197326,154.421328 171.832006,153.194673 170.616,151.872 C169.399994,150.549327 168.258672,149.098675 167.192,147.52 L152.408,147.52 C151.682663,148.629339 150.872004,149.685328 149.976,150.688 C149.079996,151.690672 148.141338,152.682662 147.16,153.664 C148.226672,153.749334 149.261328,153.813333 150.264,153.856 C151.266672,153.898667 152.279995,153.909333 153.304,153.888 C154.328005,153.866667 155.394661,153.813334 156.504,153.728 C157.613339,153.642666 158.807994,153.514668 160.088,153.344 C161.922676,153.130666 163.597326,152.842668 165.112,152.48 C166.626674,152.117332 167.938661,151.680003 169.048,151.168 C169.389335,151.893337 169.666666,152.426665 169.88,152.768 C170.093334,153.109335 170.434664,153.514664 170.904,153.984 C171.288002,154.368002 171.437334,154.719998 171.352,155.04 C171.266666,155.360002 170.989336,155.477334 170.52,155.392 C170.391999,155.349333 170.221334,155.328 170.008,155.328 C169.794666,155.328 169.400003,155.349333 168.824,155.392 C168.247997,155.434667 167.394672,155.519999 166.264,155.648 C165.133328,155.776001 163.586676,155.925332 161.624,156.096 L161.624,160.832 C163.288008,160.832 164.77066,160.810667 166.072,160.768 C167.37334,160.725333 168.567995,160.693333 169.656,160.672 C170.744005,160.650667 171.757329,160.608 172.696,160.544 C173.634671,160.48 174.594662,160.405334 175.576,160.32 L175.576,164.224 C174.594662,164.138666 173.634671,164.064 172.696,164 C171.757329,163.936 170.744005,163.893333 169.656,163.872 C168.567995,163.850667 167.37334,163.818667 166.072,163.776 C164.77066,163.733333 163.288008,163.712 161.624,163.712 L161.624,168.128 C166.530691,168.128 170.797315,168.085334 174.424,168 C178.050685,167.914666 181.207987,167.765334 183.896,167.552 L183.896,171.648 C181.207987,171.434666 178.050685,171.285334 174.424,171.2 C170.797315,171.114666 166.530691,171.072 161.624,171.072 L161.624,176.832 C161.624,177.898672 161.538668,178.77333 161.368,179.456 C161.197332,180.13867 160.760004,180.703998 160.056,181.152 C159.351996,181.600002 158.264007,181.951999 156.792,182.208 C155.319993,182.464001 153.304013,182.677332 150.744,182.848 C150.658666,181.951996 150.498668,181.16267 150.264,180.48 C150.029332,179.79733 149.549337,179.029338 148.824,178.176 C150.87201,178.432001 152.493327,178.570667 153.688,178.592 C154.882673,178.613333 155.778664,178.506668 156.376,178.272 C156.973336,178.037332 157.357332,177.664003 157.528,177.152 C157.698668,176.639997 157.784,175.978671 157.784,175.168 L157.784,171.072 C148.098618,171.072 140.610693,171.263998 135.32,171.648 L135.32,167.552 C140.610693,167.936002 148.098618,168.128 157.784,168.128 L157.784,163.712 C156.077325,163.712 154.54134,163.722667 153.176,163.744 C151.81066,163.765333 150.552006,163.797333 149.4,163.84 C148.247994,163.882667 147.170672,163.936 146.168,164 C145.165328,164.064 144.173338,164.138666 143.192,164.224 L143.192,160.32 C145.197343,160.490668 147.330655,160.618666 149.592,160.704 C151.853345,160.789334 154.583984,160.832 157.784,160.832 L157.784,156.544 Z" id="太極拳-copy" fill="#0077A2" sketch:type="MSShapeGroup"></path>
        </g>
    </g>
</svg>